<svg width="206" height="201" viewBox="0 0 206 201" fill="none" xmlns="http://www.w3.org/2000/svg">
<path fill-rule="evenodd" clip-rule="evenodd" d="M36.8021 0.5H169.198C189.271 0.5 205.5 16.7393 205.5 36.8248V164.175C205.5 184.261 189.271 200.5 169.198 200.5H36.8021C16.7292 200.5 0.5 184.261 0.5 164.175V36.8248C0.5 16.7393 16.7292 0.5 36.8021 0.5ZM82.8417 120.158H51.0667L44.575 140.329C44.4042 141.098 43.7208 141.611 42.9521 141.526H26.8938C25.9542 141.526 25.6979 141.013 25.9542 139.987L53.4583 61.0983C53.7146 60.2436 53.9708 59.4744 54.3125 58.4487C54.6542 56.6539 54.825 54.7735 54.825 52.8932C54.7396 52.4658 55.0813 52.0385 55.5083 51.953H55.7646H77.6313C78.2292 51.953 78.6562 52.2094 78.7417 52.6368L109.919 139.816C110.175 140.756 109.919 141.184 109.065 141.184H91.2125C90.6146 141.269 90.0167 140.842 89.8458 140.244L82.8417 119.731V120.158ZM56.0208 103.15H77.7167C77.2042 101.355 76.5208 99.218 75.7521 96.9957C74.9833 94.688 74.2146 92.2094 73.4458 89.6453C73.0188 88.3209 72.6132 87.0177 72.2076 85.7146L72.2073 85.7137L72.207 85.7128C71.8014 84.4097 71.3957 83.1064 70.9688 81.782C70.1146 79.1325 69.3458 76.6539 68.6625 74.1752C68.3606 73.1178 68.0753 72.0937 67.7994 71.103L67.7982 71.0988C67.45 69.8489 67.1167 68.6522 66.7833 67.5085H66.6125C65.8438 71.1838 64.9042 74.8589 63.7083 78.5342C63.2207 80.0955 62.7331 81.6816 62.2408 83.283L62.2398 83.2863C61.4388 85.8918 60.6254 88.5378 59.7792 91.1838C58.6687 95.5427 57.3021 99.5598 56.0208 103.15ZM133.152 112.466H160.229C161.374 112.466 162.473 112.557 163.538 112.645C164.54 112.727 165.512 112.808 166.465 112.808C168.429 112.808 170.052 112.722 171.419 112.551C171.899 112.521 172.326 112.491 172.701 112.465C173.393 112.416 173.905 112.38 174.237 112.38C174.835 112.38 175.348 111.868 175.433 111.269C175.471 110.927 175.509 110.499 175.555 109.987C175.612 109.349 175.68 108.58 175.775 107.68C175.86 106.056 175.946 104.261 175.946 102.209C175.946 98.7051 175.433 95.2009 174.323 91.782C173.212 88.1923 171.419 84.9445 169.198 82.0385C166.806 79.047 163.731 76.7393 160.229 75.2009C156.044 73.3205 151.517 72.4658 146.99 72.5513C141.523 72.5513 136.74 73.235 132.725 75.2009C128.71 77.1667 125.208 79.9017 122.39 83.3205C119.485 86.8248 117.35 90.7564 115.983 95.0299C114.531 99.4744 113.848 104.004 113.848 108.62C113.848 112.893 114.446 117.081 115.642 121.098C116.838 125.201 118.802 128.962 121.535 132.295C124.44 135.799 128.112 138.62 132.298 140.415C136.74 142.38 142.206 143.406 148.698 143.406C152.798 143.491 156.812 143.15 160.827 142.38C163.817 141.867 166.635 141.013 169.369 139.816C169.625 139.645 169.796 139.474 169.967 139.218C170.052 138.876 170.138 138.534 170.138 138.192V125.115C170.138 124.261 169.881 124.09 169.454 124.432C167.062 125.372 164.5 126.056 161.852 126.397C158.948 126.996 155.958 127.252 152.969 127.338C149.21 127.423 145.452 126.654 142.035 125.201C139.473 124.175 137.337 122.38 135.8 120.073C134.348 117.765 133.494 115.115 133.152 112.466ZM151.175 99.9872H133.152C133.408 97.8504 134.006 95.7991 135.031 93.8333C137.252 89.5598 141.694 87.0812 146.392 87.3376C151.431 87.1667 155.958 90.4146 157.496 95.2009C157.837 96.2265 158.008 97.2521 158.008 98.3632V99.218C157.41 99.6453 156.727 99.8162 156.044 99.9017C155.019 99.9872 153.396 99.9872 151.175 99.9872Z" fill="#131412"/>
</svg>
