<svg width="422" height="343" viewBox="0 0 422 343" fill="none" xmlns="http://www.w3.org/2000/svg">
<path d="M219.497 196.03C220.285 181.992 227.146 169.588 237.541 160.823C247.715 152.207 261.378 146.933 276.377 146.933C291.303 146.933 304.966 152.199 315.139 160.823C325.535 169.588 332.366 181.992 333.183 196.03C333.97 210.44 328.171 223.884 318.035 233.838C307.639 243.939 292.936 250.327 276.377 250.327C259.818 250.327 245.041 243.984 234.72 233.838C224.547 223.884 218.755 210.515 219.572 196.105L219.497 196.03Z" fill="#131412"/>
<path d="M129.966 221.011C130.063 226.507 131.815 237.203 134.444 245.522C139.968 263.2 149.369 279.541 162.364 293.877C175.73 308.658 192.215 320.543 211.224 329.01C231.199 337.849 252.882 342.38 275.381 342.38C297.881 342.351 319.563 337.745 339.538 328.788C358.548 320.246 375.033 308.361 388.399 293.506C401.468 279.022 410.824 262.681 416.319 245.003C419.103 236.089 420.863 227.027 421.569 217.965C422.259 209.052 421.97 200.065 420.7 191.077C418.22 173.622 412.16 157.206 402.878 142.351C394.413 128.61 383.423 116.651 370.354 106.549L370.384 106.527L238.951 5.50942C238.833 5.42029 238.736 5.32365 238.61 5.24194C229.996 -1.38361 215.442 -1.36129 206.012 5.27912C196.433 11.9938 195.319 23.1057 203.858 30.0878L203.821 30.125L258.696 74.7658L91.6206 74.944H91.3978C77.5863 74.9588 64.2945 84.006 61.6955 95.519C58.9926 107.181 68.3785 116.911 82.7841 116.911L82.7619 116.963L167.413 116.799L15.9317 232.672C15.7387 232.814 15.5307 232.962 15.3525 233.103C1.0954 244.022 -3.50847 262.22 5.47648 273.659C14.6099 285.32 33.9907 285.394 48.3963 273.725L130.82 206.133C130.82 206.133 129.617 215.269 129.714 220.691L129.966 221.011ZM342.338 251.539C325.333 268.845 301.497 278.724 275.805 278.724C250.038 278.769 226.202 269.068 209.197 251.762C200.881 243.294 194.792 233.638 191.005 223.313C187.314 213.137 185.881 202.367 186.831 191.523C187.73 180.901 190.893 170.725 195.965 161.589C200.925 152.601 207.771 144.431 216.162 137.523C232.721 124.079 253.736 116.725 275.716 116.725C297.77 116.695 318.784 123.923 335.343 137.374C343.734 144.237 350.565 152.378 355.54 161.366C360.612 170.502 363.783 180.604 364.674 191.3C365.61 202.144 364.176 212.915 360.486 223.091C356.714 233.489 350.61 243.145 342.293 251.613L342.338 251.539Z" fill="#131412"/>
</svg>
