<svg width="264" height="297" viewBox="0 0 264 297" fill="none" xmlns="http://www.w3.org/2000/svg">
<g clip-path="url(#clip0_19_7)">
<path fill-rule="evenodd" clip-rule="evenodd" d="M260.642 74.2496C258.57 70.6616 255.712 67.5282 252.569 65.7135L143.431 2.72203C137.145 -0.907344 126.855 -0.907344 120.569 2.72203L11.4314 65.7135C5.14369 69.342 0 78.2498 0 85.5077V211.491C0 215.121 1.28635 219.162 3.35867 222.75L55.8048 192.479C48.2995 179.533 44 164.509 44 148.5C44 99.9907 83.4766 60.5255 132 60.5255C163.311 60.5255 192.512 77.37 208.207 104.485L185.927 117.374L260.642 74.2496ZM170.114 126.501C170.117 126.506 170.12 126.512 170.123 126.517L185.633 117.544L260.642 74.2505C262.715 77.8376 264 81.8784 264 85.5078V211.491C264 215.121 262.713 219.163 260.641 222.75C258.57 226.338 255.712 229.471 252.569 231.286L143.431 294.277C137.145 297.906 126.855 297.906 120.569 294.277L11.4313 231.286C8.28837 229.472 5.43009 226.338 3.35864 222.75L55.805 192.479C71.0417 218.76 99.4905 236.474 132 236.474C163.312 236.474 192.515 219.629 208.21 192.511L170.126 170.481C162.269 184.055 147.661 192.487 132 192.487C115.745 192.487 101.521 183.63 93.9025 170.489L132 148.5L170.114 126.501ZM170.114 126.501L132 148.5L93.9024 170.489C90.1498 164.016 88 156.504 88 148.5C88 124.245 107.738 104.513 132 104.513C147.653 104.513 162.257 112.938 170.114 126.501Z" fill="#131412"/>
</g>
<defs>
<clipPath id="clip0_19_7">
<rect width="264" height="297" fill="white"/>
</clipPath>
</defs>
</svg>
