<svg width="264" height="297" viewBox="0 0 264 297" fill="none" xmlns="http://www.w3.org/2000/svg">
<g clip-path="url(#clip0_18_8)">
<path fill-rule="evenodd" clip-rule="evenodd" d="M260.642 74.2496C258.57 70.6616 255.712 67.5282 252.569 65.7135L143.431 2.72203C137.145 -0.907344 126.855 -0.907344 120.569 2.72203L11.4314 65.7135C5.14369 69.342 0 78.2498 0 85.5077V211.491C0 215.121 1.28635 219.162 3.35867 222.75L55.8048 192.479C48.2995 179.533 44 164.509 44 148.5C44 99.9907 83.4766 60.5255 132 60.5255C163.311 60.5255 192.512 77.37 208.207 104.485L185.927 117.374L185.633 117.544L170.123 126.517L170.114 126.501L132 148.5L170.114 126.501C162.257 112.938 147.653 104.513 132 104.513C107.738 104.513 88 124.245 88 148.5C88 156.504 90.1498 164.016 93.9024 170.489L132 148.5L93.9025 170.489C101.521 183.63 115.745 192.487 132 192.487C147.661 192.487 162.269 184.055 170.126 170.481L208.21 192.511C192.515 219.629 163.312 236.474 132 236.474C99.4905 236.474 71.0417 218.76 55.805 192.479L3.35864 222.75C5.43009 226.338 8.28837 229.472 11.4313 231.286L120.569 294.277C126.855 297.906 137.145 297.906 143.431 294.277L252.569 231.286C255.712 229.471 258.57 226.338 260.641 222.75C262.713 219.163 264 215.121 264 211.491V85.5078C264 81.8784 262.715 77.8376 260.642 74.2505L185.927 117.374L260.642 74.2496ZM220 143.612H210.222V133.838H200.445V143.612H190.667V153.387H200.445V163.162H210.222V153.387H220V143.612ZM246.888 143.612H256.667V153.387H246.888V163.162H237.112V153.387H227.333V143.612H237.112V133.838H246.888V143.612Z" fill="#131412"/>
</g>
<defs>
<clipPath id="clip0_18_8">
<rect width="264" height="297" fill="white"/>
</clipPath>
</defs>
</svg>
