<svg width="226" height="226" viewBox="0 0 226 226" fill="none" xmlns="http://www.w3.org/2000/svg">
<path fill-rule="evenodd" clip-rule="evenodd" d="M13.3623 0L31.4975 203.408L112.878 226L194.483 203.376L212.638 0H13.3623ZM54.9374 92.0729L57.1731 117.02L112.914 117.02L113 117.02L143.633 117.02L140.738 149.374L112.914 156.884V156.886L112.891 156.893L85.1066 149.39L83.3309 129.494H58.2872L61.7827 168.664L112.885 182.851L113 182.819V182.815L164.057 168.664L164.432 164.449L170.294 98.7717L170.903 92.0729L175.407 41.5791H113H112.914H50.4443L52.7123 66.5265L112.914 66.5265L113 66.5265L148.067 66.5265L145.796 92.0729H113H112.914H54.9374Z" fill="#131412"/>
</svg>
