<svg width="162" height="243" viewBox="0 0 162 243" fill="none" xmlns="http://www.w3.org/2000/svg">
<path d="M79.5 198.5C79.5 220.028 62.031 237.5 40.5081 237.5C18.9853 237.5 1.51624 220.028 1.51624 198.5C1.51624 176.972 18.9853 159.5 40.5081 159.5H79.5V198.5Z" fill="#131412" stroke="#F6F6F6" stroke-width="3"/>
<path d="M1.51624 119.5C1.51624 97.9721 18.9853 80.5 40.5081 80.5H79.5V158.5H40.5081C18.9853 158.5 1.51624 141.028 1.51624 119.5Z" fill="#131412" stroke="#F6F6F6" stroke-width="3"/>
<path d="M1.51624 40.5C1.51624 18.9721 18.9853 1.5 40.5081 1.5H79.5V79.5H40.5081C18.9853 79.5 1.51624 62.0279 1.51624 40.5Z" fill="#131412" stroke="#F6F6F6" stroke-width="3"/>
<path d="M80.5 1.5H119.492C141.015 1.5 158.484 18.9721 158.484 40.5C158.484 62.0279 141.015 79.5 119.492 79.5H80.5V1.5Z" fill="#131412" stroke="#F6F6F6" stroke-width="3"/>
<path d="M160.484 119.5C160.484 141.028 143.015 158.5 121.492 158.5C99.9691 158.5 82.5 141.028 82.5 119.5C82.5 97.9721 99.9691 80.5 121.492 80.5C143.015 80.5 160.484 97.9721 160.484 119.5Z" fill="#131412" stroke="#F6F6F6" stroke-width="3"/>
</svg>
