<svg width="211" height="206" viewBox="0 0 211 206" fill="none" xmlns="http://www.w3.org/2000/svg">
<mask id="path-1-inside-1_18_132" fill="white">
<path fill-rule="evenodd" clip-rule="evenodd" d="M173.635 0H37.3646C16.7042 0 0 16.7265 0 37.4145V168.585C0 189.273 16.7042 206 37.3646 206H173.635C194.296 206 211 189.273 211 168.585V37.4145C211 16.7265 194.296 0 173.635 0ZM69.2783 123.248H101.983L109.192 144.2C109.368 144.816 109.984 145.256 110.599 145.168H128.974C129.853 145.168 130.117 144.728 129.853 143.76L97.7633 53.0846C97.6754 52.6444 97.3237 52.3803 96.6204 52.3803H73.85C73.4104 52.4684 73.0587 52.9085 73.1467 53.3487C73.1467 55.2855 72.9708 57.2222 72.6192 59.0709C72.37 59.8194 72.165 60.5237 71.9728 61.1838C71.8938 61.4554 71.8169 61.7195 71.74 61.9761L43.4308 143.584C43.1671 144.64 43.4308 145.168 44.3979 145.168H60.9263C61.7175 145.256 62.4208 144.728 62.5967 143.936L69.2783 123.248ZM96.7083 105.377H74.3775C75.6962 101.679 77.015 97.5419 78.2458 93.0521C79.1168 90.3268 79.954 87.6015 80.7784 84.9179C81.2855 83.2673 81.7878 81.6324 82.29 80.0231C83.5208 76.2376 84.4879 72.4521 85.2792 68.6667H85.455C85.7981 69.8445 86.1411 71.077 86.4994 72.3642C86.7839 73.3861 87.0779 74.4425 87.3892 75.5333C88.0925 78.0863 88.8837 80.6393 89.7629 83.3684C90.2025 84.7329 90.6201 86.0754 91.0377 87.4179C91.4553 88.7605 91.8729 90.103 92.3125 91.4675C93.1037 94.1086 93.895 96.6615 94.6862 99.0385C95.4775 101.327 96.1808 103.528 96.7083 105.377ZM141.634 64.7051C143.744 66.7299 146.557 67.8744 149.458 67.7863C152.448 67.9624 155.437 66.8179 157.459 64.7051C159.569 62.5043 160.624 59.5991 160.536 56.606C160.624 53.7009 159.569 50.8838 157.635 48.7709C155.7 46.7462 153.063 45.6897 149.634 45.6897C146.733 45.6897 143.92 46.7462 141.81 48.7709C139.7 50.7957 138.557 53.6128 138.645 56.606C138.557 59.5991 139.612 62.5043 141.634 64.7051ZM139.612 76.4137V144.2C139.612 145.08 140.051 145.609 140.93 145.609H158.162C158.953 145.609 159.305 145.168 159.305 144.2V76.4137C159.305 75.6214 158.953 75.1812 158.162 75.1812H140.755C139.963 75.1812 139.612 75.5333 139.612 76.4137Z"/>
</mask>
<path fill-rule="evenodd" clip-rule="evenodd" d="M173.635 0H37.3646C16.7042 0 0 16.7265 0 37.4145V168.585C0 189.273 16.7042 206 37.3646 206H173.635C194.296 206 211 189.273 211 168.585V37.4145C211 16.7265 194.296 0 173.635 0ZM69.2783 123.248H101.983L109.192 144.2C109.368 144.816 109.984 145.256 110.599 145.168H128.974C129.853 145.168 130.117 144.728 129.853 143.76L97.7633 53.0846C97.6754 52.6444 97.3237 52.3803 96.6204 52.3803H73.85C73.4104 52.4684 73.0587 52.9085 73.1467 53.3487C73.1467 55.2855 72.9708 57.2222 72.6192 59.0709C72.37 59.8194 72.165 60.5237 71.9728 61.1838C71.8938 61.4554 71.8169 61.7195 71.74 61.9761L43.4308 143.584C43.1671 144.64 43.4308 145.168 44.3979 145.168H60.9263C61.7175 145.256 62.4208 144.728 62.5967 143.936L69.2783 123.248ZM96.7083 105.377H74.3775C75.6962 101.679 77.015 97.5419 78.2458 93.0521C79.1168 90.3268 79.954 87.6015 80.7784 84.9179C81.2855 83.2673 81.7878 81.6324 82.29 80.0231C83.5208 76.2376 84.4879 72.4521 85.2792 68.6667H85.455C85.7981 69.8445 86.1411 71.077 86.4994 72.3642C86.7839 73.3861 87.0779 74.4425 87.3892 75.5333C88.0925 78.0863 88.8837 80.6393 89.7629 83.3684C90.2025 84.7329 90.6201 86.0754 91.0377 87.4179C91.4553 88.7605 91.8729 90.103 92.3125 91.4675C93.1037 94.1086 93.895 96.6615 94.6862 99.0385C95.4775 101.327 96.1808 103.528 96.7083 105.377ZM141.634 64.7051C143.744 66.7299 146.557 67.8744 149.458 67.7863C152.448 67.9624 155.437 66.8179 157.459 64.7051C159.569 62.5043 160.624 59.5991 160.536 56.606C160.624 53.7009 159.569 50.8838 157.635 48.7709C155.7 46.7462 153.063 45.6897 149.634 45.6897C146.733 45.6897 143.92 46.7462 141.81 48.7709C139.7 50.7957 138.557 53.6128 138.645 56.606C138.557 59.5991 139.612 62.5043 141.634 64.7051ZM139.612 76.4137V144.2C139.612 145.08 140.051 145.609 140.93 145.609H158.162C158.953 145.609 159.305 145.168 159.305 144.2V76.4137C159.305 75.6214 158.953 75.1812 158.162 75.1812H140.755C139.963 75.1812 139.612 75.5333 139.612 76.4137Z" fill="#131412"/>
<path d="M101.983 123.248L102.929 122.923L102.697 122.248H101.983V123.248ZM69.2783 123.248V122.248H68.5504L68.3267 122.941L69.2783 123.248ZM109.192 144.2L110.154 143.926L110.147 143.9L110.138 143.875L109.192 144.2ZM110.599 145.168V144.168H110.528L110.458 144.178L110.599 145.168ZM129.853 143.76L130.818 143.497L130.808 143.461L130.796 143.426L129.853 143.76ZM97.7633 53.0846L96.7827 53.2805L96.7967 53.3507L96.8206 53.4182L97.7633 53.0846ZM73.85 52.3803V51.3803H73.7508L73.6536 51.3998L73.85 52.3803ZM73.1467 53.3487H74.1467V53.2498L74.1273 53.1528L73.1467 53.3487ZM72.6192 59.0709L73.568 59.3868L73.5891 59.3234L73.6015 59.2578L72.6192 59.0709ZM71.9728 61.1838L72.933 61.4633L72.933 61.4633L71.9728 61.1838ZM71.74 61.9761L72.6848 62.3038L72.6918 62.2836L72.6979 62.2631L71.74 61.9761ZM43.4308 143.584L42.4861 143.256L42.4714 143.298L42.4606 143.342L43.4308 143.584ZM60.9263 145.168L61.0368 144.174L60.9817 144.168H60.9263V145.168ZM62.5967 143.936L61.6451 143.629L61.6306 143.673L61.6204 143.719L62.5967 143.936ZM74.3775 105.377L73.4356 105.041L72.9591 106.377H74.3775V105.377ZM96.7083 105.377V106.377H98.0336L97.6699 105.103L96.7083 105.377ZM78.2458 93.0521L77.2933 92.7477L77.2869 92.7676L77.2814 92.7877L78.2458 93.0521ZM80.7784 84.9179L81.7343 85.2116L81.7343 85.2116L80.7784 84.9179ZM82.29 80.0231L81.3389 79.7138L81.3354 79.7252L82.29 80.0231ZM85.2792 68.6667V67.6667H84.4666L84.3003 68.4621L85.2792 68.6667ZM85.455 68.6667L86.4151 68.387L86.2053 67.6667H85.455V68.6667ZM86.4994 72.3642L85.5361 72.6324L85.5361 72.6324L86.4994 72.3642ZM87.3892 75.5333L88.3533 75.2677L88.3508 75.259L87.3892 75.5333ZM89.7629 83.3684L90.7147 83.0617L90.7147 83.0617L89.7629 83.3684ZM92.3125 91.4675L93.2704 91.1805L93.2675 91.1707L93.2643 91.1609L92.3125 91.4675ZM94.6862 99.0385L93.7374 99.3543L93.7411 99.3652L94.6862 99.0385ZM149.458 67.7863L149.517 66.7881L149.473 66.7854L149.428 66.7868L149.458 67.7863ZM141.634 64.7051L140.897 65.3817L140.919 65.4049L140.941 65.4267L141.634 64.7051ZM157.459 64.7051L156.737 64.0131L156.736 64.0137L157.459 64.7051ZM160.536 56.606L159.536 56.5757L159.535 56.6055L159.536 56.6353L160.536 56.606ZM157.635 48.7709L158.372 48.0957L158.365 48.0879L158.358 48.0802L157.635 48.7709ZM141.81 48.7709L141.117 48.0494L141.117 48.0494L141.81 48.7709ZM138.645 56.606L139.644 56.6353L139.645 56.606L139.644 56.5766L138.645 56.606ZM37.3646 1H173.635V-1H37.3646V1ZM1 37.4145C1 17.2775 17.2577 1 37.3646 1V-1C16.1506 -1 -1 16.1755 -1 37.4145H1ZM1 168.585V37.4145H-1V168.585H1ZM37.3646 205C17.2577 205 1 188.722 1 168.585H-1C-1 189.825 16.1506 207 37.3646 207V205ZM173.635 205H37.3646V207H173.635V205ZM210 168.585C210 188.722 193.742 205 173.635 205V207C194.849 207 212 189.825 212 168.585H210ZM210 37.4145V168.585H212V37.4145H210ZM173.635 1C193.742 1 210 17.2775 210 37.4145H212C212 16.1755 194.849 -1 173.635 -1V1ZM101.983 122.248H69.2783V124.248H101.983V122.248ZM110.138 143.875L102.929 122.923L101.038 123.573L108.247 144.525L110.138 143.875ZM110.458 144.178C110.432 144.182 110.376 144.179 110.303 144.128C110.229 144.076 110.175 144.001 110.154 143.926L108.231 144.474C108.528 145.514 109.574 146.325 110.741 146.158L110.458 144.178ZM128.974 144.168H110.599V146.168H128.974V144.168ZM128.888 144.023C128.913 144.115 128.929 144.191 128.939 144.252C128.948 144.314 128.951 144.356 128.95 144.381C128.95 144.433 128.94 144.384 128.991 144.301C129.017 144.26 129.049 144.224 129.085 144.196C129.119 144.169 129.146 144.157 129.155 144.153C129.163 144.15 129.155 144.154 129.123 144.159C129.092 144.164 129.043 144.168 128.974 144.168V146.168C129.528 146.168 130.272 146.033 130.693 145.353C131.069 144.745 130.962 144.028 130.818 143.497L128.888 144.023ZM96.8206 53.4182L128.91 144.093L130.796 143.426L98.706 52.751L96.8206 53.4182ZM96.6204 53.3803C96.7356 53.3803 96.8098 53.3913 96.8523 53.4014C96.8939 53.4113 96.8968 53.4182 96.8789 53.4067C96.8583 53.3933 96.8307 53.3686 96.8081 53.3338C96.7867 53.3009 96.7822 53.2782 96.7827 53.2805L98.744 52.8887C98.653 52.4334 98.4036 52.0115 97.9664 51.7282C97.5601 51.4649 97.0826 51.3803 96.6204 51.3803V53.3803ZM73.85 53.3803H96.6204V51.3803H73.85V53.3803ZM74.1273 53.1528C74.1484 53.2584 74.1084 53.322 74.1009 53.332C74.0958 53.3388 74.0912 53.3428 74.0861 53.3461C74.0807 53.3496 74.0682 53.3565 74.0464 53.3609L73.6536 51.3998C72.7769 51.5754 71.9503 52.4644 72.166 53.5446L74.1273 53.1528ZM73.6015 59.2578C73.9655 57.3444 74.1467 55.3449 74.1467 53.3487H72.1467C72.1467 55.226 71.9761 57.1001 71.6368 58.8841L73.6015 59.2578ZM72.933 61.4633C73.1256 60.8015 73.3257 60.1146 73.568 59.3868L71.6704 58.7551C71.4143 59.5242 71.2043 60.246 71.0127 60.9043L72.933 61.4633ZM72.6979 62.2631C72.7761 62.0021 72.8541 61.7342 72.933 61.4633L71.0127 60.9043C70.9334 61.1766 70.8576 61.4369 70.7821 61.6891L72.6979 62.2631ZM44.3756 143.912L72.6848 62.3038L70.7952 61.6483L42.4861 143.256L44.3756 143.912ZM44.3979 144.168C44.2384 144.168 44.1841 144.145 44.1902 144.148C44.1966 144.151 44.2186 144.161 44.2465 144.185C44.2751 144.209 44.2994 144.239 44.3169 144.269C44.351 144.327 44.3357 144.345 44.3346 144.263C44.3334 144.18 44.3477 144.04 44.4011 143.826L42.4606 143.342C42.3169 143.917 42.226 144.653 42.5887 145.276C43.0063 145.992 43.7668 146.168 44.3979 146.168V144.168ZM60.9263 144.168H44.3979V146.168H60.9263V144.168ZM61.6204 143.719C61.5484 144.044 61.2898 144.203 61.0368 144.174L60.8157 146.162C62.1452 146.31 63.2932 145.413 63.5729 144.153L61.6204 143.719ZM68.3267 122.941L61.6451 143.629L63.5483 144.243L70.2299 123.555L68.3267 122.941ZM74.3775 106.377H96.7083V104.377H74.3775V106.377ZM77.2814 92.7877C76.0573 97.2532 74.746 101.367 73.4356 105.041L75.3194 105.713C76.6465 101.992 77.9727 97.8306 79.2103 93.3165L77.2814 92.7877ZM79.8225 84.6243C78.9978 87.3087 78.1622 90.0286 77.2933 92.7477L79.1984 93.3565C80.0713 90.625 80.9102 87.8943 81.7343 85.2116L79.8225 84.6243ZM81.3354 79.7252C80.8324 81.337 80.3295 82.974 79.8225 84.6243L81.7343 85.2116C82.2415 83.5605 82.7431 81.9278 83.2446 80.321L81.3354 79.7252ZM84.3003 68.4621C83.5151 72.2185 82.5568 75.9684 81.339 79.7139L83.241 80.3323C84.4848 76.5068 85.4607 72.6858 86.258 68.8713L84.3003 68.4621ZM85.455 67.6667H85.2792V69.6667H85.455V67.6667ZM87.4628 72.0961C87.1049 70.81 86.7601 69.5716 86.4151 68.387L84.4949 68.9463C84.836 70.1174 85.1774 71.3439 85.5361 72.6324L87.4628 72.0961ZM88.3508 75.259C88.0406 74.1717 87.7474 73.1184 87.4628 72.0961L85.5361 72.6324C85.8204 73.6539 86.1153 74.7133 86.4275 75.8077L88.3508 75.259ZM90.7147 83.0617C89.8374 80.3384 89.0511 77.8008 88.3533 75.2677L86.4251 75.7989C87.1339 78.3719 87.9301 80.9402 88.8111 83.675L90.7147 83.0617ZM91.9926 87.1209C91.5752 85.7791 91.1561 84.4318 90.7147 83.0617L88.8111 83.675C89.2489 85.034 89.665 86.3717 90.0828 87.715L91.9926 87.1209ZM93.2643 91.1609C92.8265 89.8019 92.4104 88.4642 91.9926 87.1209L90.0828 87.715C90.5002 89.0568 90.9193 90.4041 91.3607 91.7742L93.2643 91.1609ZM95.6351 98.7226C94.8482 96.3589 94.0601 93.8164 93.2704 91.1805L91.3546 91.7545C92.1473 94.4007 92.9418 96.9642 93.7374 99.3543L95.6351 98.7226ZM97.6699 105.103C97.1362 103.232 96.4269 101.013 95.6314 98.7117L93.7411 99.3652C94.528 101.642 95.2254 103.824 95.7467 105.651L97.6699 105.103ZM149.428 66.7868C146.811 66.8662 144.254 65.8335 142.326 63.9836L140.941 65.4267C143.234 67.6264 146.303 68.8825 149.489 68.7859L149.428 66.7868ZM156.736 64.0137C154.924 65.9071 152.224 66.9475 149.517 66.7881L149.4 68.7846C152.671 68.9773 155.949 67.7288 158.181 65.3965L156.736 64.0137ZM159.536 56.6353C159.617 59.3726 158.653 62.0143 156.737 64.0131L158.181 65.3972C160.484 62.9943 161.631 59.8257 161.535 56.5766L159.536 56.6353ZM156.897 49.4462C158.655 51.367 159.616 53.931 159.536 56.5757L161.535 56.6362C161.631 53.4707 160.482 50.4005 158.372 48.0957L156.897 49.4462ZM149.634 46.6897C152.84 46.6897 155.198 47.6679 156.911 49.4617L158.358 48.0802C156.203 45.8244 153.286 44.6897 149.634 44.6897V46.6897ZM142.502 49.4925C144.414 47.6576 146.974 46.6897 149.634 46.6897V44.6897C146.492 44.6897 143.425 45.8347 141.117 48.0494L142.502 49.4925ZM139.644 56.5766C139.564 53.86 140.6 51.3176 142.502 49.4925L141.117 48.0494C138.799 50.2739 137.549 53.3656 137.645 56.6353L139.644 56.5766ZM142.37 64.0286C140.529 62.0246 139.564 59.3747 139.644 56.6353L137.645 56.5766C137.55 59.8236 138.694 62.9839 140.897 65.3817L142.37 64.0286ZM140.612 144.2V76.4137H138.612V144.2H140.612ZM140.93 144.609C140.809 144.609 140.742 144.59 140.712 144.579C140.697 144.573 140.69 144.568 140.687 144.566C140.684 144.565 140.683 144.564 140.682 144.562C140.681 144.561 140.665 144.544 140.647 144.489C140.629 144.432 140.612 144.339 140.612 144.2H138.612C138.612 144.794 138.76 145.421 139.201 145.907C139.657 146.409 140.286 146.609 140.93 146.609V144.609ZM158.162 144.609H140.93V146.609H158.162V144.609ZM158.305 144.2C158.305 144.386 158.288 144.507 158.269 144.581C158.251 144.652 158.236 144.659 158.253 144.639C158.274 144.613 158.301 144.597 158.31 144.593C158.311 144.593 158.271 144.609 158.162 144.609V146.609C158.744 146.609 159.369 146.439 159.808 145.896C160.208 145.401 160.305 144.77 160.305 144.2H158.305ZM158.305 76.4137V144.2H160.305V76.4137H158.305ZM158.162 76.1812C158.27 76.1812 158.317 76.1965 158.326 76.1996C158.328 76.2006 158.307 76.1916 158.285 76.1666C158.264 76.1441 158.269 76.1364 158.279 76.1715C158.29 76.21 158.305 76.2863 158.305 76.4137H160.305C160.305 75.8909 160.192 75.2992 159.776 74.834C159.341 74.3473 158.741 74.1812 158.162 74.1812V76.1812ZM140.755 76.1812H158.162V74.1812H140.755V76.1812ZM140.612 76.4137C140.612 76.255 140.628 76.1673 140.64 76.1274C140.649 76.0935 140.649 76.1161 140.614 76.1535C140.577 76.1927 140.544 76.2035 140.551 76.2012C140.566 76.1962 140.626 76.1812 140.755 76.1812V74.1812C140.234 74.1812 139.618 74.2946 139.159 74.7812C138.714 75.2533 138.612 75.8737 138.612 76.4137H140.612Z" fill="black" mask="url(#path-1-inside-1_18_132)"/>
</svg>
