<svg width="208" height="203" viewBox="0 0 208 203" fill="none" xmlns="http://www.w3.org/2000/svg">
<path fill-rule="evenodd" clip-rule="evenodd" d="M36.8334 0H171.167C191.533 0 208 16.4829 208 36.8696V166.13C208 186.517 191.533 203 171.167 203H36.8334C16.4667 203 0 186.517 0 166.13V36.8696C0 16.4829 16.4667 0 36.8334 0ZM75.5734 53.0923V142.447C75.5734 143.401 75.14 143.835 74.36 143.835H57.3733C56.5934 143.835 56.2467 143.401 56.2467 142.447V53.0923C56.2467 52.3115 56.6801 51.9645 57.46 51.9645H74.36C74.88 51.8778 75.4 52.2248 75.4867 52.832C75.5382 52.8836 75.5591 52.9351 75.5676 52.9866C75.5734 53.0219 75.5734 53.0571 75.5734 53.0923ZM107.033 140.972C112.84 143.662 119.253 144.963 125.667 144.876C130.173 144.876 134.68 144.442 139.013 143.662C143.867 142.794 148.633 141.406 153.14 139.497C153.747 139.237 154.007 138.717 154.007 138.109C153.993 137.882 153.98 137.648 153.966 137.409C153.891 136.098 153.807 134.619 153.66 133.078L153.636 132.557C153.558 130.853 153.487 129.291 153.487 127.873V45.2846V45.1111C153.4 44.7641 153.053 44.4171 152.62 44.5038H135.027C134.42 44.5038 134.16 44.8508 134.16 45.4581V72.8718C133.679 72.8317 133.235 72.8101 132.819 72.7899C132.337 72.7665 131.892 72.7449 131.473 72.6983C130.693 72.6115 130.087 72.6115 129.653 72.6115C121.073 72.6115 113.793 74.2598 107.727 77.6432C102.007 80.7662 97.24 85.4509 93.9467 91.0897C90.74 96.6419 89.0934 102.975 89.1801 109.394C89.1801 117.289 90.74 123.882 93.9467 129.174C97.0667 134.292 101.573 138.456 107.033 140.972ZM134.16 89.3547V127.526C133.207 127.873 132.167 128.046 131.04 127.959C129.913 128.046 128.7 128.133 127.4 128.133C124.973 128.133 122.547 127.786 120.207 127.005C117.953 126.311 115.96 125.097 114.313 123.535C112.58 121.8 111.28 119.718 110.413 117.376C109.373 114.513 108.853 111.477 108.94 108.44C108.94 103.929 109.893 100.199 111.8 97.4227C113.707 94.6466 116.22 92.4778 119.167 91.003C122.2 89.4415 125.58 88.7474 128.96 88.7474C129.913 88.7474 130.867 88.8342 131.82 88.921C132.599 89.0076 133.379 89.181 134.159 89.3543L134.16 89.3547Z" fill="#131412"/>
</svg>
