<svg width="267" height="267" viewBox="0 0 267 267" fill="none" xmlns="http://www.w3.org/2000/svg">
<path fill-rule="evenodd" clip-rule="evenodd" d="M0 0H267V267H0V0ZM204.107 223.831C191.731 223.831 184.734 217.376 179.356 208.595L158.967 220.44C166.333 234.994 181.386 246.098 204.687 246.098C228.518 246.098 246.263 233.722 246.263 211.133C246.263 190.18 234.227 180.861 212.909 171.719L206.637 169.032C195.872 164.37 191.21 161.323 191.21 153.796C191.21 147.706 195.868 143.044 203.217 143.044C210.421 143.044 215.062 146.083 219.364 153.796L238.901 141.251C230.637 126.715 219.169 121.163 203.217 121.163C180.81 121.163 166.472 135.488 166.472 154.305C166.472 174.732 178.5 184.395 196.605 192.109L202.878 194.8C214.32 199.805 221.144 202.852 221.144 211.456C221.144 218.635 214.503 223.831 204.107 223.831ZM106.872 223.674C98.2518 223.674 94.6663 217.762 90.7249 210.769L70.3015 223.134C76.2179 235.655 87.8515 246.051 107.94 246.051C130.173 246.051 145.405 234.227 145.405 208.247V122.595H120.315V207.908C120.315 220.449 115.115 223.674 106.872 223.674Z" fill="#131412"/>
</svg>
