<svg width="472" height="196" viewBox="0 0 472 196" fill="none" xmlns="http://www.w3.org/2000/svg">
<g clip-path="url(#clip0_19_20)">
<path d="M55.4891 81.4488C57.1557 76.3093 59.6578 71.7795 62.978 67.8159C66.3112 63.8655 70.4669 60.7164 75.4451 58.3644C80.4232 56.0124 86.1806 54.832 92.7604 54.832C99.3403 54.832 105.141 56.0124 110.076 58.3644C115.054 60.7164 119.21 63.8524 122.543 67.8159C125.876 71.7795 128.387 76.3093 130.032 81.4488C131.698 86.5884 132.534 91.9022 132.534 97.4337C132.534 102.965 131.698 108.323 130.032 113.462C128.365 118.602 125.863 123.131 122.543 127.095C119.21 131.046 115.054 134.195 110.076 136.503C105.098 138.816 99.3403 139.979 92.7604 139.979C86.1806 139.979 80.38 138.82 75.4451 136.503C70.4669 134.186 66.3112 131.059 62.978 127.095C59.6448 123.145 57.1341 118.602 55.4891 113.462C53.8225 108.323 52.9871 103.009 52.9871 97.4337C52.9871 91.8586 53.8225 86.5448 55.4891 81.4488ZM65.6186 109.629C66.7051 113.619 68.415 117.208 70.7266 120.387C73.0556 123.58 76.0511 126.137 79.6873 128.097C83.3366 130.035 87.6957 131.002 92.7171 131.002C97.7819 131.002 102.111 130.035 105.747 128.097C109.396 126.159 112.37 123.611 114.708 120.387C117.037 117.195 118.742 113.593 119.816 109.629C120.902 105.635 121.448 101.571 121.448 97.4773C121.448 93.3831 120.902 89.3324 119.816 85.3253C118.729 81.3182 117.019 77.7466 114.708 74.5671C112.379 71.3744 109.383 68.8177 105.747 66.8577C102.098 64.9195 97.7386 63.9482 92.7171 63.9482C87.6524 63.9482 83.3236 64.9195 79.6873 66.8577C76.0381 68.7959 73.0642 71.3439 70.7266 74.5671C68.3977 77.764 66.6878 81.3617 65.6186 85.3253C64.5321 89.315 63.991 93.3831 63.991 97.4773C63.991 101.571 64.5321 105.622 65.6186 109.629Z" fill="#131412"/>
<path d="M148.992 86.2398V93.2523H149.167C150.595 90.3732 152.838 88.2869 155.877 86.9803C158.937 85.6736 162.283 85.0203 165.963 85.0203C170.041 85.0203 173.581 85.7564 176.612 87.2285C179.638 88.7007 182.153 90.6868 184.144 93.1956C186.148 95.7044 187.659 98.5965 188.689 101.863C189.711 105.139 190.222 108.614 190.222 112.273C190.222 115.949 189.728 119.416 188.741 122.726C187.754 126.002 186.261 128.868 184.239 131.307C182.235 133.746 179.737 135.662 176.707 137.056C173.677 138.459 170.17 139.164 166.145 139.164C164.85 139.164 163.409 139.03 161.816 138.764C160.218 138.493 158.638 138.063 157.054 137.457C155.491 136.856 154.011 136.033 152.595 134.996C151.201 133.96 150.028 132.67 149.08 131.129H148.905V157.915H140.161V86.0486L148.992 86.2398ZM180.03 104.664C179.385 102.36 178.402 100.308 177.082 98.4789C175.757 96.6757 174.06 95.2384 171.974 94.1669C169.905 93.0955 167.472 92.5641 164.701 92.5641C161.784 92.5641 159.29 93.1347 157.256 94.2715C155.221 95.4083 153.559 96.8935 152.278 98.7141C150.988 100.552 150.057 102.643 149.481 104.986C148.905 107.325 148.615 109.69 148.615 112.086C148.615 114.629 148.918 117.095 149.533 119.447C150.143 121.82 151.109 123.889 152.433 125.719C153.754 127.522 155.468 128.977 157.585 130.074C159.689 131.176 162.217 131.729 165.203 131.729C168.186 131.729 170.658 131.163 172.692 130.026C174.727 128.889 176.307 127.387 177.541 125.496C178.761 123.628 179.64 121.489 180.186 119.094C180.727 116.685 180.999 114.216 180.999 111.689C180.999 109.285 180.676 106.942 180.03 104.633V104.664Z" fill="#131412"/>
<path d="M234.703 135.022C230.751 137.962 225.786 139.421 219.769 139.421C215.544 139.421 211.89 138.755 208.773 137.418C205.674 136.081 203.059 134.208 200.938 131.799C198.826 129.391 197.241 126.529 196.176 123.175C195.12 119.83 194.527 116.206 194.389 112.243C194.389 108.297 194.999 104.708 196.228 101.397C197.453 98.122 199.176 95.2996 201.38 92.8605C203.596 90.4518 206.228 88.5833 209.258 87.2418C212.293 85.9046 215.622 85.2339 219.215 85.2339C223.933 85.2339 227.829 86.1921 230.946 88.0998C234.05 90.0076 236.53 92.438 238.435 95.3736C240.309 98.3223 241.608 101.559 242.322 104.999C243.036 108.484 243.326 111.794 243.192 114.93H203.67C203.601 117.199 203.872 119.373 204.484 121.376C205.095 123.38 206.081 125.214 207.44 126.777C208.799 128.345 210.535 129.595 212.635 130.532C214.743 131.468 217.223 131.934 220.08 131.934C223.751 131.934 226.747 131.098 229.084 129.425C231.431 127.753 232.976 125.209 233.716 121.803H242.287C241.127 127.596 238.573 131.995 234.625 134.913L234.703 135.022ZM232.586 101.746C231.807 99.947 230.755 98.392 229.431 97.0854C228.106 95.7874 226.543 94.7508 224.755 93.9842C222.955 93.2176 220.968 92.83 218.782 92.83C216.539 92.83 214.518 93.2141 212.721 93.9842C210.92 94.7508 209.375 95.8048 208.089 97.1376C206.799 98.4704 205.782 100.025 205.033 101.798C204.284 103.566 203.843 105.452 203.709 107.46H233.967C233.83 105.457 233.37 103.558 232.591 101.755L232.586 101.746Z" fill="#131412"/>
<path d="M257.213 86.2398V94.4718H257.377C261.001 88.1998 266.728 85.0203 274.606 85.0203C278.095 85.0203 281.013 85.4907 283.307 86.4271C285.632 87.3636 287.515 88.6702 288.934 90.3428C290.372 92.0153 291.38 94.0058 291.96 96.3099C292.54 98.6183 292.83 101.188 292.83 103.976V138.123H284.086V103.017C284.086 99.8074 283.13 97.2681 281.221 95.3952C279.307 93.5223 276.675 92.5859 273.342 92.5859C270.68 92.5859 268.364 92.9892 266.416 93.7924C264.472 94.5938 262.849 95.7306 261.568 97.2028C260.273 98.6749 259.299 100.395 258.654 102.386C258.005 104.359 257.68 106.519 257.68 108.876V138.189H248.936V86.3574L257.213 86.2398Z" fill="#131412"/>
<path d="M353.313 137.635C349.365 139.273 345.392 140.092 341.366 140.092C335.002 140.092 329.288 139.003 324.223 136.834C319.159 134.661 314.873 131.651 311.41 127.862C307.925 124.05 305.263 119.586 303.402 114.403C301.545 109.263 300.614 103.688 300.614 97.7647C300.614 91.6669 301.54 86.0047 303.393 80.778C305.246 75.5514 307.895 70.978 311.401 67.1016C314.878 63.2121 319.15 60.1763 324.215 57.9549C329.28 55.7423 334.994 54.636 341.357 54.636C345.612 54.636 349.755 55.2675 353.738 56.5263C357.724 57.7894 361.313 59.6405 364.516 62.1014C367.728 64.5449 370.36 67.5459 372.481 71.161C374.572 74.7456 375.849 78.8703 376.317 83.4872H358.915C357.828 78.9138 355.737 75.5165 352.638 73.2081C349.539 70.9258 345.798 69.7846 341.383 69.7846C337.279 69.7846 333.808 70.5643 330.951 72.1279C328.093 73.6915 325.756 75.7909 323.981 78.3999C322.198 81.0307 320.903 84.0186 320.094 87.3723C319.28 90.7261 318.873 94.2106 318.873 97.7821C318.873 101.214 319.28 104.533 320.094 107.8C320.908 111.04 322.206 113.941 323.99 116.555C325.773 119.146 328.098 121.215 330.959 122.783C333.825 124.347 337.323 125.126 341.435 125.126C347.495 125.126 352.127 123.628 355.46 120.64C358.755 117.643 360.655 113.279 361.218 107.617H342.863V94.2019H377.667V138.193H366.109L364.257 128.959C361.006 133.071 357.417 135.928 353.435 137.583L353.313 137.635Z" fill="#131412"/>
<path d="M407.424 57.0577V123.262H447.855V138.376H389.416V56.927L407.424 57.0577Z" fill="#131412"/>
<path d="M321.28 148.524C293.445 165.163 251.586 174.658 205.267 174.658C121.288 174.658 53.7576 140.336 53.7576 97.9999C53.7576 55.6639 121.72 21.3421 205.267 21.3421C252.018 21.3421 293.575 30.9679 321.713 47.7368C291.324 19.687 236.868 -0.174312 174.532 -0.174312C79.2978 -0.189557 1.81152 43.8168 1.81152 97.8257C1.8033 151.835 79.2978 195.826 174.532 195.826C236.435 195.836 290.978 176.182 321.28 148.35V148.524Z" fill="#131412"/>
<path d="M471.131 130.667C471.131 132.034 470.789 133.311 470.105 134.491C469.421 135.671 468.493 136.603 467.315 137.283C466.137 137.962 464.863 138.302 463.499 138.302C462.138 138.302 460.874 137.962 459.691 137.283C458.514 136.603 457.584 135.671 456.901 134.491C456.219 133.311 455.875 132.034 455.875 130.667C455.875 129.303 456.216 128.032 456.901 126.847C457.584 125.662 458.514 124.73 459.691 124.051C460.869 123.371 462.138 123.031 463.499 123.031C464.863 123.031 466.137 123.372 467.315 124.051C468.493 124.73 469.423 125.662 470.105 126.847C470.787 128.032 471.131 129.303 471.131 130.667ZM469.653 130.667C469.653 128.964 469.053 127.513 467.849 126.311C466.645 125.105 465.198 124.504 463.503 124.504C461.804 124.504 460.356 125.105 459.157 126.311C457.953 127.518 457.353 128.968 457.353 130.667C457.353 132.365 457.953 133.82 459.157 135.022C460.361 136.229 461.808 136.83 463.503 136.83C465.202 136.83 466.65 136.229 467.849 135.022C469.049 133.816 469.653 132.365 469.653 130.667ZM460.048 126.581H463.694C464.724 126.581 465.476 126.789 465.937 127.208C466.398 127.625 466.632 128.184 466.632 128.885C466.632 129.434 466.456 129.905 466.102 130.305C465.749 130.706 465.194 130.998 464.433 131.176C464.746 131.297 464.976 131.423 465.124 131.557C465.331 131.744 465.547 132.018 465.772 132.389C465.785 132.415 466.224 133.203 467.089 134.749H464.69C463.912 133.194 463.386 132.267 463.121 131.962C462.854 131.659 462.586 131.504 462.321 131.504C462.261 131.504 462.178 131.514 462.071 131.534V134.749H460.042L460.048 126.581ZM462.078 130.044H462.955C463.542 130.044 463.955 129.949 464.194 129.759C464.434 129.568 464.554 129.324 464.554 129.023C464.554 128.723 464.438 128.479 464.209 128.287C463.979 128.097 463.587 128.002 463.035 128.002H462.075L462.078 130.044Z" fill="#131412"/>
</g>
<defs>
<clipPath id="clip0_19_20">
<rect width="472" height="196" fill="white"/>
</clipPath>
</defs>
</svg>
