<svg width="356" height="192" viewBox="0 0 356 192" fill="none" xmlns="http://www.w3.org/2000/svg">
<path fill-rule="evenodd" clip-rule="evenodd" d="M178 186.995C82.4594 186.995 5.00562 146.255 5.00562 96C5.00562 45.7461 82.4594 5.00525 178 5.00525C273.54 5.00525 350.994 45.7461 350.994 96C350.994 146.255 273.54 186.995 178 186.995ZM115.746 102.308C112.18 105.052 106.544 106.444 98.9951 106.444H89.1885L95.8766 72.0332H107.941C114.899 72.0332 119.508 73.2308 121.639 75.592C123.724 77.9038 124.178 82.1876 122.987 88.3228C121.71 94.8866 119.274 99.5921 115.746 102.308ZM58.0886 148.149C58.4447 148.582 58.9765 148.833 59.5365 148.833H79.4032C80.3017 148.833 81.0738 148.196 81.2452 147.313L85.6627 124.588H101.131C108.807 124.588 115.238 123.761 120.245 122.13C125.333 120.477 130.019 117.668 134.158 113.794C137.617 110.616 140.46 107.052 142.612 103.202C144.761 99.355 146.307 95.0586 147.205 90.4325C149.414 79.0775 147.67 70.0424 142.023 63.5788C136.406 57.1489 127.47 53.8892 115.464 53.8892H77.262C76.3635 53.8892 75.5908 54.5261 75.4193 55.4077L57.6944 146.598C57.5874 147.148 57.732 147.717 58.0886 148.149ZM192.756 124.588C192.195 124.588 191.664 124.338 191.308 123.905C190.95 123.473 190.806 122.904 190.913 122.354L198.754 82.0056C199.499 78.1685 199.315 75.4143 198.236 74.2506C197.575 73.5392 195.591 72.3461 189.722 72.3461H175.517L165.66 123.069C165.488 123.951 164.715 124.588 163.817 124.588H144.107C143.547 124.588 143.015 124.338 142.659 123.905C142.302 123.473 142.158 122.903 142.265 122.354L159.989 31.1636C160.161 30.282 160.934 29.6451 161.832 29.6451H181.542C182.102 29.6451 182.634 29.8954 182.99 30.3277C183.347 30.7606 183.491 31.3294 183.384 31.8799L179.107 53.8893H194.388C206.029 53.8893 213.923 55.9414 218.521 60.1633C223.207 64.4703 224.669 71.3569 222.867 80.6342L214.621 123.069C214.449 123.951 213.677 124.588 212.778 124.588H192.756ZM270.804 102.308C267.238 105.052 261.603 106.444 254.054 106.444H244.247L250.935 72.0333H262.999C269.957 72.0333 274.566 73.2308 276.698 75.592C278.783 77.9038 279.237 82.1876 278.046 88.3228C276.769 94.8872 274.332 99.5928 270.804 102.308ZM213.148 148.149C213.504 148.582 214.036 148.833 214.596 148.833H234.462C235.361 148.833 236.133 148.196 236.305 147.313L240.721 124.588H256.19C263.865 124.588 270.296 123.761 275.304 122.13C280.392 120.477 285.077 117.668 289.217 113.794C292.675 110.616 295.519 107.052 297.671 103.202C299.82 99.355 301.365 95.0586 302.265 90.4325C304.472 79.0769 302.729 70.0418 297.082 63.5788C291.464 57.1489 282.529 53.8892 270.522 53.8892H232.321C231.422 53.8892 230.65 54.5262 230.478 55.4077L212.753 146.598C212.646 147.148 212.791 147.717 213.148 148.149Z" fill="#131412"/>
</svg>
