<svg width="195" height="190" viewBox="0 0 195 190" fill="none" xmlns="http://www.w3.org/2000/svg">
<path fill-rule="evenodd" clip-rule="evenodd" d="M34.5312 0H160.469C179.562 0 195 15.4273 195 34.5085V155.491C195 174.573 179.562 190 160.469 190H34.5312C15.4375 190 0 174.573 0 155.491V34.5085C0 15.4273 15.4375 0 34.5312 0ZM46.3125 133.081V49.5299C46.3125 48.9615 46.5563 48.6368 47.125 48.6368C48.5062 48.6368 49.8063 48.6368 51.675 48.5555C52.6781 48.5138 53.7028 48.4935 54.7598 48.4725H54.7634H54.7671C55.7627 48.4528 56.7874 48.4325 57.85 48.3932C58.9828 48.3512 60.1589 48.331 61.3783 48.31L61.3856 48.3098C62.5255 48.2902 63.7032 48.27 64.9187 48.2308C67.4375 48.1496 69.875 48.1496 72.3125 48.1496C78.975 48.1496 84.5 48.9615 89.05 50.6667C93.1125 52.047 96.85 54.3205 99.9375 57.3248C102.537 59.9231 104.569 63.0897 105.869 66.5812C107.088 69.9915 107.738 73.4829 107.738 77.1368C107.738 84.1196 106.113 89.8846 102.863 94.4316C99.6125 98.9786 95.0625 102.389 89.7812 104.338C84.2562 106.367 78.1625 107.098 71.5 107.098C69.55 107.098 68.25 107.098 67.4375 107.017C66.625 106.936 65.4875 106.936 63.9437 106.936V133C64.025 133.568 63.6188 134.056 63.05 134.137H62.725H47.2875C46.6375 134.137 46.3125 133.812 46.3125 133.081ZM64.025 64.3889V91.671L64.2686 91.6884C65.3136 91.7634 66.2887 91.8333 67.1937 91.8333H71.5C74.6687 91.8333 77.8375 91.3461 80.8438 90.3718C83.4437 89.6411 85.7188 88.0983 87.5062 86.0684C89.2125 84.0385 90.025 81.2778 90.025 77.7051C90.1062 75.188 89.4563 72.671 88.1562 70.4786C86.775 68.3675 84.825 66.7436 82.4688 65.8504C79.4625 64.6324 76.2125 64.1453 72.8812 64.2265C70.7688 64.2265 68.9 64.2265 67.3562 64.3077C65.7312 64.2265 64.5938 64.3077 64.025 64.3889ZM133.656 69.1795H119.438C119.356 69.0983 119.194 69.0983 119.194 69.1795C118.787 69.2607 118.544 69.6667 118.625 70.0726L118.644 70.2968C118.8 72.0835 118.95 73.8013 118.95 75.594C118.991 76.6495 119.011 77.7051 119.031 78.7607C119.052 79.8163 119.072 80.8718 119.113 81.9274C119.194 84.0385 119.194 86.0684 119.194 88.0171V133V133.325C119.275 133.974 119.844 134.38 120.494 134.299H136.5C137.231 134.299 137.556 133.974 137.556 133.162V91.7521C138.694 90.453 140.156 89.4786 141.7 88.7479C143.894 87.7735 146.169 87.0427 148.525 86.5555C151.369 85.906 154.375 85.6624 157.3 85.7436C158.194 85.7436 158.6 85.5 158.6 84.8504V69.0171V68.6923C158.519 68.1239 158.031 67.718 157.463 67.7991C153.156 67.7991 148.85 68.8547 145.113 70.9658C141.781 72.7521 138.856 75.1068 136.419 77.9487C136.419 76.8932 136.338 75.9188 136.256 75.0256C136.175 74.2137 136.012 73.3205 135.85 72.5085C135.769 71.7778 135.606 71.1282 135.363 70.4786C135.119 69.7479 134.469 69.1795 133.656 69.1795Z" fill="#131412"/>
</svg>
