<svg width="280" height="281" viewBox="0 0 280 281" fill="none" xmlns="http://www.w3.org/2000/svg">
<path d="M59.9684 176.877C59.9684 192.972 46.9605 205.979 30.866 205.979C14.7715 205.979 1.76367 192.972 1.76367 176.877C1.76367 160.783 14.7715 147.775 30.866 147.775H59.9684V176.877ZM74.5196 176.877C74.5196 160.783 87.5275 147.775 103.622 147.775C119.716 147.775 132.724 160.783 132.724 176.877V249.633C132.724 265.728 119.716 278.735 103.622 278.735C87.5275 278.735 74.5196 265.728 74.5196 249.633V176.877Z" fill="#131412"/>
<path d="M103.622 60.0267C87.5275 60.0267 74.5196 47.0189 74.5196 30.9244C74.5196 14.8299 87.5275 1.82202 103.622 1.82202C119.716 1.82202 132.724 14.8299 132.724 30.9244V60.0267H103.622ZM103.622 74.7984C119.716 74.7984 132.724 87.8063 132.724 103.901C132.724 119.995 119.716 133.003 103.622 133.003H30.6456C14.5511 133.003 1.54321 119.995 1.54321 103.901C1.54321 87.8063 14.5511 74.7984 30.6456 74.7984H103.622Z" fill="#131412"/>
<path d="M220.252 103.901C220.252 87.8063 233.26 74.7984 249.354 74.7984C265.449 74.7984 278.457 87.8063 278.457 103.901C278.457 119.995 265.449 133.003 249.354 133.003H220.252V103.901ZM205.701 103.901C205.701 119.995 192.693 133.003 176.598 133.003C160.504 133.003 147.496 119.995 147.496 103.901V30.9244C147.496 14.8299 160.504 1.82202 176.598 1.82202C192.693 1.82202 205.701 14.8299 205.701 30.9244V103.901Z" fill="#131412"/>
<path d="M176.598 220.531C192.693 220.531 205.701 233.539 205.701 249.633C205.701 265.728 192.693 278.735 176.598 278.735C160.504 278.735 147.496 265.728 147.496 249.633V220.531H176.598ZM176.598 205.979C160.504 205.979 147.496 192.972 147.496 176.877C147.496 160.783 160.504 147.775 176.598 147.775H249.575C265.669 147.775 278.677 160.783 278.677 176.877C278.677 192.972 265.669 205.979 249.575 205.979H176.598Z" fill="#131412"/>
</svg>
