<svg width="224" height="225" viewBox="0 0 224 225" fill="none" xmlns="http://www.w3.org/2000/svg">
<g clip-path="url(#clip0_18_23)">
<path d="M196 0.5H28C12.544 0.5 0 13.044 0 28.5V196.5C0 211.956 12.544 224.5 28 224.5H196C211.456 224.5 224 211.956 224 196.5V28.5C224 13.044 211.456 0.5 196 0.5ZM97.454 170.18C97.454 177.621 91.441 183.634 84 183.634H42.546C35.147 183.634 29.127 177.579 29.127 170.18V43.053C29.127 35.654 35.14 29.634 42.546 29.634H84C91.441 29.634 97.454 35.647 97.454 43.053V170.18ZM194.873 114.18C194.873 121.579 188.86 127.634 181.454 127.634H140C132.559 127.634 126.546 121.579 126.546 114.18V43.053C126.546 35.654 132.601 29.634 140 29.634H181.454C188.853 29.634 194.873 35.647 194.873 43.053V114.18Z" fill="#131412"/>
</g>
<defs>
<clipPath id="clip0_18_23">
<rect width="224" height="224" fill="white" transform="translate(0 0.5)"/>
</clipPath>
</defs>
</svg>
